<svg xmlns="http://www.w3.org/2000/svg" xmlns:xlink="http://www.w3.org/1999/xlink" width="263" height="90" fill="none" viewBox="0 0 263 90">
  <defs>
    <path id="d" fill="#fff" d="M0 0h262.02v90H0z"/>
  </defs>
  <g clip-path="url(#a)">
    <g clip-path="url(#b)">
      <path fill="#010101" d="M95.94 27a3.8 3.8 0 0 1-3.82-3.81 3.78 3.78 0 1 1 7.57 0c0 2.05-1.7 3.82-3.75 3.82Zm-3.53 32.05V31.12a7.12 7.12 0 0 1 7.06 7.13V66.1a7.06 7.06 0 0 1-7.06-7.06Z"/>
      <path fill="#010101" d="M141.5 66.1c-3.75-.06-6.98-3-6.98-6.83V48.98c0-6.02-5.22-10.87-11.61-10.87-6.4 0-11.61 4.85-11.61 10.87v9.92c0 3.97-3.16 7.2-7.06 7.2V48.98c0-9.92 8.38-17.93 18.67-17.93 10.29 0 18.66 8 18.66 17.93V66.1h-.07Z"/>
      <path fill="#010101" d="M211.02 61.92c-1.25 2.57-3.6 4.4-6.4 4.4-2.78 0-5.14-1.83-6.39-4.4 0 0 .08.07-14.7-30.28a7.12 7.12 0 0 1 8.97 2.8l12.05 24.68c0 .07.08.15.08.22 0-.07.07-.15.07-.22l11.98-24.54c1.61-3.24 5.73-4.41 9.11-2.94-14.84 30.35-14.77 30.27-14.77 30.27Z"/>
      <path fill="#010101" d="M254.97 59.05V48.69c0-5.95-5.22-10.8-11.61-10.8-6.4 0-11.61 4.85-11.61 10.8 0 5.95 4.63 10.29 11.02 10.29 3.9 0 7.27-1.55 9.26-4.34.44.59.74 1.25.96 1.9a7.03 7.03 0 0 1-4.2 8.6c-1.83.67-3.89.89-6.02.89-10.29 0-18.08-7.43-18.08-17.35 0-9.92 8.38-17.86 18.67-17.86 10.29 0 18.66 8.01 18.66 17.86V66.1a7.06 7.06 0 0 1-7.05-7.06Z"/>
      <path fill="#CC1517" d="m179.79 35.33-3.34 29.2a3.42 3.42 0 0 1-.7 1.72c.18-.17.35-.36.5-.57l9.35-12.62a4.53 4.53 0 0 0 .51-4.51l-6.26-14.4c-.1-.26-.23-.49-.38-.71.27.55.4 1.2.32 1.89Z" opacity=".8"/>
      <path fill="#1F2D53" d="M185.24 47.7c.43.31.76.7.98 1.12a3.82 3.82 0 0 0-.08-.21l-6.25-14.42a4.54 4.54 0 0 0-3.65-2.7l-15.6-1.79a6.23 6.23 0 0 0-.41-.03c.5.1 1 .3 1.45.63l23.56 17.4Z" opacity=".8"/>
      <path fill="#B06CAA" d="M174.97 31.77c.49-.22.99-.3 1.47-.3a3.76 3.76 0 0 0-.23-.03l-15.6-1.78c-1.61-.18-3.2.5-4.17 1.81L147.1 44.1l-.23.34c.33-.39.75-.71 1.27-.94l26.84-11.72h-.01Z" opacity=".8"/>
      <path fill="#6DC4C7" d="M156.2 32.68a3.3 3.3 0 0 1 .51-1.45l-.23.28-9.35 12.64a4.54 4.54 0 0 0-.51 4.51l6.25 14.42.06.15a3.48 3.48 0 0 1-.12-1.42l3.39-29.13Z" opacity=".8"/>
      <path fill="#CC6" d="M147.45 49.43a3.5 3.5 0 0 1-1-1.18l.13.35 6.25 14.4a4.56 4.56 0 0 0 3.65 2.71l15.6 1.78.16.02a3.5 3.5 0 0 1-1.3-.6l-23.5-17.48h.01Z" opacity=".8"/>
      <path fill="#676767" d="m184.56 53.66-26.94 11.72c-.62.27-1.26.34-1.85.26.24.07.5.13.75.15l15.6 1.79c1.6.18 3.2-.51 4.16-1.81l9.34-12.64c.16-.22.3-.45.42-.69-.34.51-.84.94-1.47 1.22Z" opacity=".6"/>
      <g clip-path="url(#c)">
        <path fill="#000" d="M50.62 3.76V9.7l-7.9 4.34a.57.57 0 0 0-.3.5v5.26a.57.57 0 0 0 .28.49c.09.05.19.08.3.08.08 0 .17-.03.25-.07l7.38-3.87v3.63l-8.06 4.17a.57.57 0 0 0-.31.5v5.64a.57.57 0 0 0 .83.5l7.68-3.98.02 5.8-13.96 7.72.05-28.93 13.77-7.72m.57-.96-14.9 8.35-.06 30.22 15.12-8.35-.03-7.07-8.49 4.42v-5.63l8.38-4.33-.05-4.92-8.2 4.3v-5.26l8.2-4.5V2.8h.03Z"/>
        <path fill="#000" d="M19.13 50.99a.29.29 0 0 1-.29-.29l.03-30.34a.3.3 0 0 1 .15-.25l15.3-8.4a.28.28 0 0 1 .43.24v7.24a.28.28 0 0 1-.15.25l-8.44 4.58v4.63l8.17-4.3a.3.3 0 0 1 .28 0 .29.29 0 0 1 .14.24l.02 4.92a.28.28 0 0 1-.14.25l-8.28 4.47v13.04a.28.28 0 0 1-.16.25l-6.93 3.43a.27.27 0 0 1-.13.04Zm.31-30.46v29.7l6.34-3.15.02-13.03a.29.29 0 0 1 .15-.25l8.25-4.45-.02-4.28-8.17 4.3a.28.28 0 0 1-.38-.1.28.28 0 0 1-.04-.14v-5.28a.28.28 0 0 1 .15-.25l8.44-4.58v-6.6l-14.74 8.11Z"/>
        <path fill="#000" d="m8.18 55.6-.34-.02c-1.4-.14-2.6-.77-4.14-2.18C2.48 52.3 1 48.97.52 46.3c-.58-2.89-.7-5.84-.35-8.77.25-2.39.58-4.3 2.61-6.95 1.4-1.84 3.73-3.6 5.28-4.54 1.25-.73 8.28-4.43 8.57-4.59a.28.28 0 0 1 .39.1l.03.15v6.95a.3.3 0 0 1-.15.25l-2.48 1.36s-1.98 1.12-3.45 2.1l-.03.01a9.68 9.68 0 0 0-3.47 3.48 11.06 11.06 0 0 0-1.08 4.95c0 1.82.49 4.89.97 6.08.4 1.02.88 1.2 1.72 1.2.65 0 2.17-.56 2.98-.96.8-.4 5.4-2.95 5.44-2.98a.28.28 0 0 1 .39.1l.03.15v7.14a.29.29 0 0 1-.15.26l-4.84 2.52c-.11.06-2.92 1.28-4.75 1.28Zm8.34-33.42a423.3 423.3 0 0 0-8.13 4.35 20.36 20.36 0 0 0-5.12 4.4C1.32 33.45 1 35.28.77 37.58c-.35 2.87-.24 5.78.32 8.61.45 2.53 1.88 5.76 3.01 6.78 1.46 1.34 2.53 1.9 3.8 2.03 1.63.16 4.78-1.2 4.82-1.22l4.67-2.44v-6.5c-1.17.65-4.39 2.42-5.05 2.76-.72.35-2.4 1.02-3.23 1.02-1 0-1.74-.26-2.24-1.55a22.9 22.9 0 0 1-1.02-6.28c-.03-1.81.36-3.6 1.15-5.23a10.2 10.2 0 0 1 3.65-3.68l.04-.03c1.48-.98 3.49-2.1 3.49-2.11l2.34-1.28v-6.3Z"/>
        <path fill="#000" d="M77.79 22.8v5.67l-2.17 1.2c-.08.05-2.02 1.14-3.49 2.13a10.5 10.5 0 0 0-3.78 3.8 11.7 11.7 0 0 0-1.18 5.35c0 1.93.51 5.1 1.05 6.4.6 1.52 1.55 1.73 2.5 1.73s2.7-.72 3.36-1.04a259 259 0 0 0 4.63-2.52v5.84l-4.5 2.35c-.24.1-2.85 1.2-4.42 1.2h-.25c-1-.1-2.01-.47-3.64-1.96-.98-.9-2.44-3.92-2.92-6.63-.56-2.8-.67-5.68-.33-8.52.25-2.34.56-4.05 2.45-6.53a19.63 19.63 0 0 1 5.04-4.33c.96-.57 5.73-3.1 7.68-4.13m.57-.94s-7.31 3.84-8.55 4.59c-1.24.75-3.7 2.47-5.2 4.46-1.99 2.6-2.31 4.47-2.57 6.81-.35 2.9-.24 5.83.33 8.7.47 2.62 1.94 5.87 3.1 6.93 1.6 1.46 2.73 1.98 3.97 2.1h.3c1.78 0 4.66-1.26 4.66-1.26l4.8-2.52v-7.13s-4.66 2.57-5.45 2.97c-.8.4-2.36 1-3.1 1-.88 0-1.52-.18-1.98-1.37-.5-1.24-1-4.34-1-6.2-.03-1.75.36-3.5 1.12-5.08a9.99 9.99 0 0 1 3.6-3.6c1.48-.99 3.47-2.1 3.47-2.1l2.47-1.35v-6.96h.03Z"/>
        <path fill="#000" d="M60.56 32.97v5.66l-2.19 1.21c-.08.05-2.02 1.14-3.49 2.13-1.08.72-2.71 1.8-3.78 3.8-.8 1.67-1.21 3.5-1.18 5.35 0 1.93.51 5.1 1.05 6.4a3.04 3.04 0 0 0 2.79 2.06 4.54 4.54 0 0 0 2.1-.66l.26-.14a.57.57 0 0 0 .32-.5v-8.22l5.01-2.63v14.08l-4.51 2.36c-.24.1-2.82 1.2-4.4 1.2h-.26c-1-.1-2-.48-3.64-1.97-.98-.88-2.44-3.9-2.93-6.61-.55-2.8-.66-5.68-.32-8.52.25-2.34.56-4.06 2.44-6.54a19.57 19.57 0 0 1 5.04-4.32c.97-.57 5.75-3.1 7.7-4.13m.57-.94s-7.31 3.84-8.56 4.58c-1.25.74-3.7 2.49-5.2 4.47-1.99 2.6-2.32 4.46-2.57 6.82-.35 2.9-.23 5.82.33 8.68.47 2.64 1.93 5.88 3.1 6.94 1.6 1.46 2.73 1.98 3.96 2.1h.33c1.79 0 4.64-1.24 4.64-1.24L62 61.86V46.5l-6.15 3.22v8.56c-.75.37-1.36.74-2.11.74-.87 0-1.8-.51-2.28-1.7a23.46 23.46 0 0 1-.99-6.2 11.3 11.3 0 0 1 1.11-5.08 9.98 9.98 0 0 1 3.6-3.59c1.49-.99 3.49-2.1 3.49-2.1L61.16 39v-6.96l-.02.01Z"/>
        <path fill="#000" d="M43.21 41.65v5.66l-2.2 1.2c-.08.05-2.01 1.15-3.5 2.14l-.03.01c-1.08.73-2.7 1.82-3.75 3.78a11.82 11.82 0 0 0-1.18 5.36c0 1.93.51 5.1 1.04 6.4.6 1.52 1.56 1.73 2.52 1.73.95 0 2.65-.7 3.35-1.05.6-.3 3.25-1.74 4.63-2.52v5.82l-4.51 2.36c-.24.1-2.82 1.2-4.4 1.2h-.27c-.99-.1-1.98-.47-3.63-1.97-.98-.88-2.44-3.9-2.93-6.63-.55-2.8-.66-5.68-.32-8.51.25-2.34.56-4.05 2.44-6.54 1.75-2.32 4.72-4.12 5.05-4.32.97-.57 5.74-3.1 7.68-4.13m.56-.94s-7.3 3.84-8.55 4.59a20.4 20.4 0 0 0-5.2 4.45c-2 2.61-2.32 4.47-2.57 6.82-.34 2.9-.23 5.83.35 8.68.47 2.64 1.93 5.88 3.1 6.94 1.6 1.46 2.72 2 3.96 2.1l.33.01c1.78 0 4.63-1.25 4.63-1.25l4.84-2.5v-7.15s-4.67 2.57-5.46 2.98c-.8.4-2.36.99-3.1.99-.88 0-1.52-.18-1.98-1.36-.5-1.25-1-4.34-1-6.2a11.3 11.3 0 0 1 1.12-5.09c.99-1.85 2.54-2.88 3.6-3.6 1.48-.98 3.48-2.09 3.48-2.09l2.49-1.36V40.7l-.04-.01Z"/>
        <path fill="#000" d="m30.44 85.05 3.34 2.23L79.9 62.36v-4.09"/>
        <path fill="#676767" d="m35.15 87.9 2.72 2.1L79.9 67.32V63.6L35.15 87.9Z" opacity=".6"/>
        <path fill="#000" d="M84.47 65.92H84V19.46L58.09.37l.27-.37 26.1 19.23v46.69Z"/>
      </g>
    </g>
  </g>
  <defs>
    <clipPath id="a">
      <use xlink:href="#d"/>
    </clipPath>
    <clipPath id="b">
      <use xlink:href="#d"/>
    </clipPath>
    <clipPath id="c">
      <path fill="#fff" d="M0 0h84.47v90H0z"/>
    </clipPath>
  </defs>
</svg>
